<svg height="16" viewBox="0 0 16 16" width="16" xmlns="http://www.w3.org/2000/svg"><g fill="#444"><path d="m15.2 0-4.2 4.2v-1.2c0-1.7-1.3-3-3-3s-3 1.3-3 3v4c0 .9.4 1.7 1 2.2l-.8.8c-.7-.6-1.2-1.5-1.2-2.5v-2.5c-.6 0-1 .4-1 1v1.5c0 1.3.6 2.4 1.5 3.2l-4.5 4.6v.7h.7l15.3-15.4v-.6h-.8z"/><path d="m12.5 5.1-.5.5v1.9c0 1.9-1.8 3.5-3.8 3.5h-.4c-.3 0-.6-.1-.9-.1l-.9.7c.3.1.6.2 1 .3v2.1c-3 0-2.5 2-2.5 2h7s.5-2-2.5-2v-2.1c2.2-.4 4-2.2 4-4.4v-1.5c0-.4-.2-.7-.5-.9z"/><path d="m11 7v-.4l-3.3 3.4h.3c1.7 0 3-1.4 3-3z"/></g></svg>